# xmcd
#
# Track frame offsets:
#	150
#	20613
#	35202
#	52939
#	67995
#	88772
#	105796
#	120594
#	137936
#	152779
#	171602
#	188642
#	201717
#	219978
#	242704
#
# Disc length: 3451 seconds
#
# Revision: 1
# Processed by: cddbd v1.5.1PL0 Copyright (c) Steve Scherf et al.
# Submitted via: audiograbber 1.83.01
#
DISCID=d80d790f
DTITLE=V - CB60011
DYEAR=1900
DGENRE=Karaoke Country
TTITLE0=Brooks and Dunn - Neon Moon
TTITLE1=Tracy Lawrence - Alibis
TTITLE2=K T Oslin - Come Next Monday
TTITLE3=Diamond Rio - Meet In The Middle
TTITLE4=Garth Brooks - Shameless
TTITLE5=Patty Loveless - Blame It On Your Heart
TTITLE6=George Strait - Love Without End Amen
TTITLE7=Alabama - Jukebox In My Mind
TTITLE8=Judds, The - Mama He's Crazy
TTITLE9=John Michael Montgomery - I Love The Way You Love Me
TTITLE10=Reba McEntire - For My Broken Heart
TTITLE11=Faith Hill - Wild ONe
TTITLE12=Collin Raye - Love Me
TTITLE13=Reba McEntire - Fancy
TTITLE14=Alabama - Forty Hour Week
EXTD=Chartbuster
EXTT0=
EXTT1=
EXTT2=
EXTT3=
EXTT4=
EXTT5=
EXTT6=
EXTT7=
EXTT8=
EXTT9=
EXTT10=
EXTT11=
EXTT12=
EXTT13=
EXTT14=
PLAYORDER=
